<?xml version="1.0" encoding="UTF-8"?>
<svg width="8.98461538px" height="13.7846154px" viewBox="0 0 8.98461538 13.7846154" version="1.1" xmlns="http://www.w3.org/2000/svg" xmlns:xlink="http://www.w3.org/1999/xlink">
    <title>编组 5</title>
    <g id="页面-1" stroke="none" stroke-width="1" fill="none" fill-rule="evenodd">
        <g id="运行Bot备份-3" transform="translate(-1132.5077, -800.1077)">
            <g id="编组-5" transform="translate(1137, 807) scale(-1, 1) translate(-1137, -807)translate(1129, 799)">
                <rect id="矩形" x="0" y="0" width="16" height="16"></rect>
                <path d="M4,6.36570872 L4,10.4 C4,12.609139 5.790861,14.4 8,14.4 C10.209139,14.4 12,12.609139 12,10.4 L12,4.22790591 C12,2.77655355 10.8234464,1.6 9.37209409,1.6 C7.92074174,1.6 6.74418819,2.77655355 6.74418819,4.22790591 L6.74418819,10.4389914 C6.74418819,11.215886 7.37398573,11.8456836 8.15088037,11.8456836 C8.92777501,11.8456836 9.55757255,11.215886 9.55757255,10.4389914 L9.55757255,3.75018462 L9.55757255,3.75018462" id="路径-10" stroke="#757575" stroke-width="0.984615385" stroke-linecap="round" stroke-linejoin="round"></path>
            </g>
        </g>
    </g>
</svg>