<svg width="1em" height="1em" viewBox="0 0 16.0000059 16" version="1.1" xmlns="http://www.w3.org/2000/svg" xmlns:xlink="http://www.w3.org/1999/xlink">
    <title>用户-fill备份 2</title>
    <g id="页面-1" stroke="none" stroke-width="1" fill="none" fill-rule="evenodd">
        <g id="icon未选中备份" transform="translate(-26, -494)">
            <g id="编组-8" transform="translate(12, 65)">
                <g id="用户-fill备份-2" transform="translate(14, 429)">
                    <rect id="矩形" fill="currentColor" fill-rule="nonzero" opacity="0" x="0" y="0" width="16" height="16"></rect>
                    <g id="角色管理" transform="translate(0.7172, 1.1935)" fill-rule="nonzero" stroke="currentColor">
                        <path d="M7.63436374,7.09716249 C6.97158297,7.5295722 6.17862079,7.78078822 5.32525423,7.78078822 C4.47444262,7.78078822 3.68403539,7.53122545 3.02378266,7.1020962 C1.23538529,7.94880797 0,9.74848216 0,11.8314871 C0,14.0355699 10.6666719,14.0050954 10.6666719,11.8314871 C10.6658247,9.74354844 9.42788446,7.94140089 7.63436374,7.09716249 Z M5.32525423,0 C7.01005692,0 8.37498787,1.34306163 8.37498787,3.0006976 C8.37498787,4.65763598 7.01005692,6 5.32525423,6 C3.6404401,6 2.27552059,4.65763598 2.27552059,3.0006976 C2.27552059,1.34375923 3.64045154,0 5.32525423,0 Z" id="形状"></path>
                    </g>
                    <rect id="矩形" fill="currentColor" x="12.0000059" y="4.00000195" width="4" height="1.00000049" rx="0.500000244"></rect>
                    <rect id="矩形备份" fill="currentColor" x="12.0000059" y="7.33333691" width="4" height="1.00000049" rx="0.500000244"></rect>
                    <rect id="矩形备份-2" fill="currentColor" x="12.0000059" y="10.6666719" width="4" height="1.00000049" rx="0.500000244"></rect>
                </g>
            </g>
        </g>
    </g>
</svg>
