<svg
    width="1em"
    height="1em"
    viewBox="0 0 16 16"
    version="1.1"
    xmlns="http://www.w3.org/2000/svg"
    xmlns:xlink="http://www.w3.org/1999/xlink"
  >
    <title>用户-fill备份 2</title>
    <g
      id="页面-1"
      stroke="none"
      stroke-width="1"
      fill="none"
      fill-rule="evenodd"
    >
      <g id="icon未选中" transform="translate(-26, -494)">
        <g id="用户-fill备份-2" transform="translate(26, 494)">
          <rect
            id="矩形"
            fill="#000000"
            fill-rule="nonzero"
            opacity="0"
            x="0"
            y="0"
            width="16"
            height="16"
          />
          <g
            id="角色管理"
            transform="translate(0.7172, 0.6667)"
            fill="currentColor"
            fill-rule="nonzero"
          >
            <path
              d="M7.63436374,7.62402818 C6.97158297,8.05643789 6.17862079,8.30765392 5.32525423,8.30765392 C4.47444262,8.30765392 3.68403539,8.05809115 3.02378266,7.6289619 C1.23538529,8.47567367 0,10.2753479 0,12.3583528 C0,14.5624356 10.6666719,14.5319611 10.6666719,12.3583528 C10.6658247,10.2704141 9.42788446,8.46826658 7.63436374,7.62402818 Z M5.32525423,0 C7.30594516,0 8.91058788,1.57893266 8.91058788,3.52768582 C8.91058788,5.47561885 7.30594516,7.0537314 5.32525423,7.0537314 C3.34454984,7.0537314 1.73992057,5.47561885 1.73992057,3.52768582 C1.73992057,1.57975278 3.34456329,0 5.32525423,0 Z"
              id="形状"
            />
          </g>
          <rect
            id="矩形"
            fill="currentColor"
            x="12.0000059"
            y="4.00000195"
            width="3.33333496"
            height="1.00000049"
            rx="0.500000244"
          />
          <rect
            id="矩形备份"
            fill="currentColor"
            x="12.0000059"
            y="7.33333691"
            width="3.33333496"
            height="1.00000049"
            rx="0.500000244"
          />
          <rect
            id="矩形备份-2"
            fill="currentColor"
            x="12.0000059"
            y="10.6666719"
            width="3.33333496"
            height="1.00000049"
            rx="0.500000244"
          />
        </g>
      </g>
    </g>
  </svg>
