<svg width="1em" height="1em" viewBox="0 0 14.7175881 14.4349443" version="1.1" xmlns="http://www.w3.org/2000/svg" xmlns:xlink="http://www.w3.org/1999/xlink">
    <title>编组 12</title>
    <g id="页面-1" stroke="none" stroke-width="1" fill="none" fill-rule="evenodd">
        <g id="icon未选中备份" transform="translate(-26.4814, -971.1325)">
            <g id="编组-8" transform="translate(12, 65)">
                <g id="编组-12" transform="translate(14, 905)">
                    <rect id="矩形" x="0" y="0" width="16" height="16"></rect>
                    <g id="编组-21" transform="translate(-1, -0.6)" fill="currentColor">
                        <path d="M14.8829769,3.11702313 C16.6044612,4.83850746 16.6044612,7.62958504 14.8829769,9.35106938 L12.6565318,11.5775145 L6.42248553,5.34346822 L8.64893062,3.11702313 C10.370415,1.39553879 13.1614925,1.39553879 14.8829769,3.11702313 Z M9.3560374,3.82412991 L7.83648553,5.343 L12.6564855,10.163 L14.1758701,8.6439626 C15.4592959,7.36053684 15.5051325,5.30817178 14.31338,3.96982179 L14.1758701,3.82412991 C12.84491,2.49316986 10.6869974,2.49316986 9.3560374,3.82412991 Z" id="矩形" fill-rule="nonzero"></path>
                        <path d="M8.03493007,6.91746623 L9.76867625,8.63339428 L9.7847344,8.64936969 C11.4973499,10.3619852 11.4973499,13.1386837 9.7847344,14.8512992 C8.06065189,16.5753817 5.26759456,16.582595 3.53463,14.8674405 L1.80088382,13.1515125 L8.03493007,6.91746623 Z M8.03888382,8.32746623 L3.21888382,13.1474662 L4.23807508,14.1566909 C5.53201273,15.4373304 7.58921174,15.4778741 8.93150143,14.2821392 L9.07762761,14.1441924 C10.3997189,12.8221012 10.3997189,10.6785677 9.07762761,9.35647647 C9.07144001,9.35029951 9.07144001,9.35029951 9.06523118,9.3441439 L8.03888382,8.32746623 Z" id="矩形备份-9" fill-rule="nonzero" transform="translate(6.435, 11.5333) rotate(90) translate(-6.435, -11.5333)"></path>
                        <path d="M8.18832598,8.17649777 C8.42381039,8.41198218 8.42381039,8.79377784 8.18832598,9.02926225 L7.6766673,9.54092094 C7.44118289,9.77640535 7.05938723,9.77640535 6.82390282,9.54092094 C6.58841841,9.30543653 6.58841841,8.92364087 6.82390282,8.68815646 L7.33556151,8.17649777 C7.57104591,7.94101336 7.95284158,7.94101336 8.18832598,8.17649777 Z" id="矩形"></path>
                        <path d="M9.55274915,9.54092094 C9.78823356,9.77640535 9.78823356,10.158201 9.55274915,10.3936854 L9.04109046,10.9053441 C8.80560605,11.1408285 8.42381039,11.1408285 8.18832598,10.9053441 C7.95284158,10.6698597 7.95284158,10.288064 8.18832598,10.0525796 L8.69998467,9.54092094 C8.93546908,9.30543653 9.31726474,9.30543653 9.55274915,9.54092094 Z" id="矩形备份-10"></path>
                        <path d="M16.0145327,1.91693902 C16.260459,2.16286535 16.260459,2.56159072 16.0145327,2.80751706 L15.1239547,3.69809509 C14.8780283,3.94402143 14.479303,3.94402143 14.2333766,3.69809509 C13.9874503,3.45216876 13.9874503,3.05344339 14.2333766,2.80751706 L15.1239547,1.91693902 C15.369881,1.67101269 15.7686064,1.67101269 16.0145327,1.91693902 Z" id="矩形备份-12"></path>
                        <path d="M3.44699017,14.1605689 C3.69291651,14.4064952 3.69291651,14.8052206 3.44699017,15.0511469 L2.55641214,15.9417249 C2.3104858,16.1876513 1.91176043,16.1876513 1.6658341,15.9417249 C1.41990777,15.6957986 1.41990777,15.2970732 1.6658341,15.0511469 L2.55641214,14.1605689 C2.80233847,13.9146425 3.20106384,13.9146425 3.44699017,14.1605689 Z" id="矩形备份-13"></path>
                    </g>
                </g>
            </g>
        </g>
    </g>
</svg>
