<svg
    width="1em"
    height="1em"
    viewBox="0 0 12.2037287 11.9693623"
    version="1.1"
    xmlns="http://www.w3.org/2000/svg"
    xmlns:xlink="http://www.w3.org/1999/xlink"
  >
    <title>编组 21</title>
    <g
      id="页面-1"
      stroke="none"
      stroke-width="1"
      fill="none"
      fill-rule="evenodd"
    >
      <g id="icon未选中" transform="translate(-27.7656, -1020.3738)">
        <g id="编组-21" transform="translate(26, 1018)">
          <rect id="矩形" x="0" y="0" width="16" height="16" />
          <path
            d="M12.8781263,3.52187368 C14.30557,4.94931735 14.30557,7.26366079 12.8781263,8.69110445 L11.0319725,10.5372583 L11.0319725,10.5372583 L5.8627417,5.36802753 L7.70889555,3.52187368 C9.13633921,2.09443002 11.4506827,2.09443002 12.8781263,3.52187368 Z"
            id="矩形"
            fill="currentColor"
          />
          <path
            d="M7.13667836,13.2573892 C8.55676808,11.8372995 8.55676808,9.53487911 7.13667836,8.11478939 C7.13225133,8.11036237 7.12781288,8.10594678 7.12336305,8.10154268 L5.68575195,6.67870626 L5.68575195,6.67870626 L0.516521177,11.847937 L1.95413228,13.2707735 C3.39109527,14.6929684 5.70708031,14.6869872 7.13667836,13.2573892 Z"
            id="矩形备份-9"
            fill="currentColor"
            transform="translate(5.1189, 11.2604) rotate(90) translate(-5.1189, -11.2604)"
          />
          <path
            d="M6.76127974,7.48284271 C7.03742211,7.48284271 7.26127974,7.70670034 7.26127974,7.98284271 L7.26127974,8.58284271 C7.26127974,8.85898509 7.03742211,9.08284271 6.76127974,9.08284271 C6.48513736,9.08284271 6.26127974,8.85898509 6.26127974,8.58284271 L6.26127974,7.98284271 C6.26127974,7.70670034 6.48513736,7.48284271 6.76127974,7.48284271 Z"
            id="矩形"
            fill="currentColor"
            transform="translate(6.7613, 8.2828) rotate(45) translate(-6.7613, -8.2828)"
          />
          <path
            d="M7.89265059,8.61421356 C8.16879296,8.61421356 8.39265059,8.83807119 8.39265059,9.11421356 L8.39265059,9.71421356 C8.39265059,9.99035594 8.16879296,10.2142136 7.89265059,10.2142136 C7.61650821,10.2142136 7.39265059,9.99035594 7.39265059,9.71421356 L7.39265059,9.11421356 C7.39265059,8.83807119 7.61650821,8.61421356 7.89265059,8.61421356 Z"
            id="矩形备份-10"
            fill="currentColor"
            transform="translate(7.8927, 9.4142) rotate(45) translate(-7.8927, -9.4142)"
          />
          <path
            d="M13.8164051,2.52677172 C14.0203256,2.73069224 14.0203256,3.06131273 13.8164051,3.26523326 L13.0779435,4.0036948 C12.874023,4.20761532 12.5434025,4.20761532 12.339482,4.0036948 C12.1355615,3.79977427 12.1355615,3.46915378 12.339482,3.26523326 L13.0779435,2.52677172 C13.2818641,2.3228512 13.6124846,2.3228512 13.8164051,2.52677172 Z"
            id="矩形备份-12"
            fill="currentColor"
          />
          <path
            d="M3.39548022,12.6791103 C3.59940074,12.8830308 3.59940074,13.2136513 3.39548022,13.4175718 L2.65701868,14.1560334 C2.45309816,14.3599539 2.12247767,14.3599539 1.91855714,14.1560334 C1.71463662,13.9521128 1.71463662,13.6214923 1.91855714,13.4175718 L2.65701868,12.6791103 C2.86093921,12.4751898 3.1915597,12.4751898 3.39548022,12.6791103 Z"
            id="矩形备份-13"
            fill="currentColor"
          />
        </g>
      </g>
    </g>
  </svg>
