<svg width="1em" height="1em" viewBox="0 0 14.5454909 15.3333333" version="1.1" xmlns="http://www.w3.org/2000/svg" xmlns:xlink="http://www.w3.org/1999/xlink">
    <title>编组 11</title>
    <g id="页面-1" stroke="none" stroke-width="1" fill="none" fill-rule="evenodd">
        <g id="icon未选中备份" transform="translate(-26.5, -403.5)">
            <g id="编组-8" transform="translate(12, 65)">
                <g id="编组-11" transform="translate(14, 338)">
                    <rect id="矩形" x="0" y="0" width="16" height="16"></rect>
                    <g id="编组" transform="translate(1, 1)" stroke="currentColor" stroke-linecap="round" stroke-linejoin="round">
                        <path d="M13.5454909,2.33333333 C13.5454909,2.33333333 13.5454909,11.446897 13.5454909,12.1515152 C13.5454909,13.356497 11.2893455,14.3333333 7.27272727,14.3333333 C3.25610909,14.3333333 0,13.356497 0,12.1515152 C0,11.4759879 0,2.33333333 0,2.33333333" id="路径"></path>
                        <path d="M13.5454909,8.33333333 C13.5454909,9.4379 10.3485667,10.3333333 6.66666667,10.3333333 C2.98476667,10.3333333 0,9.4379 0,8.33333333" id="路径"></path>
                        <path d="M13.5454909,5.33333333 C13.5454909,6.4379 10.3485667,7.33333333 6.66666667,7.33333333 C2.98476667,7.33333333 0,6.4379 0,5.33333333" id="路径"></path>
                        <path d="M6.5,4 C10.0898509,4 13.5454909,3.1045695 13.5454909,2 C13.5454909,0.8954305 10.0898509,0 6.5,0 C2.91014913,0 0,0.8954305 0,2 C0,3.1045695 2.91014913,4 6.5,4 Z" id="椭圆形"></path>
                    </g>
                </g>
            </g>
        </g>
    </g>
</svg>
