<svg
    width="1em"
    height="1em"
    viewBox="0 0 14.4 14.4"
    version="1.1"
    xmlns="http://www.w3.org/2000/svg"
    xmlns:xlink="http://www.w3.org/1999/xlink"
  >
    <title>编组 43备份</title>
    <g
      id="页面-1"
      stroke="none"
      stroke-width="1"
      fill="none"
      fill-rule="evenodd"
    >
      <g id="icon未选中" transform="translate(-26.8, -402.8)">
        <g id="编组-7" transform="translate(12, 390)">
          <g id="编组-43备份" transform="translate(14, 12)">
            <rect id="矩形" x="0" y="0" width="16" height="16" />
            <g
              id="编组"
              transform="translate(0.8, 0.8)"
              fill="currentColor"
              fill-rule="nonzero"
            >
              <path
                d="M7.19633233,6.30157826 C11.1681539,6.30157826 14.3926647,5.29650644 14.3926647,4.04947951 L14.3926647,2.25209875 C14.3926647,1.00507182 11.1683328,0 7.19633233,0 C3.22451079,0 0,1.00489273 0,2.25209875 L0,4.04930042 C0,5.28916361 3.21699653,6.30157826 7.19633233,6.30157826 Z"
                id="路径"
              />
              <path
                d="M7.19633233,10.3506996 C11.1681539,10.3506996 14.3926647,9.34580685 14.3926647,8.09860083 L14.3926647,5.39912692 C14.3926647,6.64615385 11.1683328,7.65122567 7.19633233,7.65122567 C3.22451079,7.65122567 0,6.64633294 0,5.39912692 L0,8.09860083 C0,9.33846403 3.21699653,10.3506996 7.19633233,10.3506996 L7.19633233,10.3506996 Z"
                id="路径"
              />
              <path
                d="M7.19633233,11.7005261 C3.22451079,11.7005261 0.00733534608,10.6954543 0.00733534608,9.44842734 L0.00733534608,12.1479012 C0.00733534608,13.3875853 3.22433188,14.4 7.20366767,14.4 C11.1754892,14.4 14.4,13.3951073 14.4,12.1479012 L14.4,9.44860643 C14.3924857,10.6954543 11.1681539,11.7005261 7.19633233,11.7005261 Z"
                id="路径"
              />
            </g>
          </g>
        </g>
      </g>
    </g>
  </svg>
