<svg width="1em" height="1em" viewBox="0 0 14.6000655 13.800012" version="1.1" xmlns="http://www.w3.org/2000/svg" xmlns:xlink="http://www.w3.org/1999/xlink">
    <title>编组 22</title>
    <g id="页面-1" stroke="none" stroke-width="1" fill="none" fill-rule="evenodd">
        <g id="icon未选中备份" transform="translate(-27.1, -639.1)">
            <g id="编组-8" transform="translate(12, 65)">
                <g id="编组-22" transform="translate(14, 573)">
                    <rect id="矩形" x="0" y="0" width="16" height="16"></rect>
                    <g id="编组" transform="translate(1.6, 1.6)">
                        <path d="M8.26223301,2.00063943 L12.8,4 C13.3049945,4.29550615 13.6000512,4.73314602 13.6000512,5.6 L13.6000512,12 C13.6032153,12.2939261 13.1562904,12.7991551 12.8,12.8 L7,12.8" id="路径" stroke="currentColor" stroke-linecap="round" stroke-linejoin="round"></path>
                        <path d="M1.1415274,12.8 C0.512798815,12.8 0,12.2707139 0,11.6228941 L0,3.13096528 C0,2.58933194 0.346943093,2.1267211 0.850433679,1.99090119 L6.6020732,0.0301555958 C6.93209224,-0.0480437458 7.27903533,0.0276861429 7.54474297,0.235943337 C7.83245187,0.46066355 8,0.804740653 8,1.17762804 L8,11.6212478 C7.99746139,12.2715371 7.48635498,12.7983537 6.8576264,12.7983537 L1.1415274,12.8 Z" id="形状结合" stroke="currentColor"></path>
                        <path d="M11.170388,8.2530546 L10.2126215,8.2530546 C9.86584368,8.25083028 9.58660899,8.02729706 9.58802281,7.7530546 C9.58802281,7.47677427 9.86837089,7.2530546 10.2126215,7.2530546 L11.170388,7.2530546 C11.5146386,7.2530546 11.7941501,7.47744813 11.7941501,7.7530546 C11.79549,7.88482379 11.7304843,8.01160423 11.6134605,8.10541221 C11.4964367,8.19922019 11.3370165,8.25234283 11.170388,8.2530546 Z" id="路径" fill="currentColor"></path>
                        <path d="M2.24982313,5.48557263 C1.90304532,5.48334832 1.62381063,5.2598151 1.62521911,4.98557263 C1.62521911,4.70929231 1.90557253,4.48557263 2.24982313,4.48557263 L5.12141847,4.48557263 C5.46481697,4.48557263 5.74517859,4.70996617 5.74517859,4.98557263 C5.74704825,5.2599665 5.46754133,5.48371763 5.12056637,5.48557263 L2.24982313,5.48557263 Z" id="路径" fill="currentColor"></path>
                        <path d="M2.24982313,8.2530546 C1.90304532,8.25083028 1.62381063,8.02729706 1.62521911,7.7530546 C1.62521911,7.47677427 1.90557253,7.2530546 2.24982313,7.2530546 L5.12141847,7.2530546 C5.343818,7.2530546 5.55002751,7.34806807 5.66165333,7.50238074 C5.77353222,7.65754607 5.77353222,7.84788927 5.66165333,8.0030546 C5.55107144,8.15703384 5.34448712,8.25222533 5.12056637,8.25238074 L2.24982313,8.2530546 Z" id="路径" fill="currentColor"></path>
                    </g>
                </g>
            </g>
        </g>
    </g>
</svg>
