<svg width="1em" height="1em" viewBox="0 0 14.0379421 14.3151752" version="1.1" xmlns="http://www.w3.org/2000/svg" xmlns:xlink="http://www.w3.org/1999/xlink">
    <title>编组 10</title>
    <g id="页面-1" stroke="none" stroke-width="1" fill="none" fill-rule="evenodd">
        <g id="icon未选中备份" transform="translate(-26.7954, -258.8515)">
            <g id="编组-8" transform="translate(12, 65)">
                <g id="编组-10" transform="translate(14, 193)">
                    <rect id="矩形" x="0" y="0" width="16" height="16"></rect>
                    <g id="编组" transform="translate(1.2954, 1.3515)" stroke="currentColor" stroke-linejoin="round">
                        <path d="M0.0277100066,11.3151752 C0.0277100066,8.74740849 0.0277100066,2 0.0277100066,2 C0.0277100066,0.89543 0.923140007,0 2.02771001,0 L11.0379421,0 L11.0379421,9.31517516 C11.0379421,9.31517516 3.77191001,9.31517516 2.02771001,9.31517516 C0.927710007,9.31517516 0.0277100066,10.2099085 0.0277100066,11.3151752 Z" id="路径"></path>
                        <path d="M8.65194112,9.31517516 C6.43462741,9.31517516 4.21731371,9.31517516 2,9.31517516 C0.89543,9.31517516 0,10.2106085 0,11.3151752 C0,12.4197418 0.89543,13.3151752 2,13.3151752 C5.01264735,13.3151752 8.0252947,13.3151752 11.0379421,13.3151752 C12.1425116,13.3151752 13.0379421,12.4197447 13.0379421,11.3151752 L13.0379421,1.31517516 L13.0379421,1.31517516" id="路径" stroke-linecap="round"></path>
                        <line x1="3.03794206" y1="11.3151752" x2="9.70460872" y2="11.3151752" id="路径" stroke-linecap="round"></line>
                    </g>
                </g>
            </g>
        </g>
    </g>
</svg>
