<svg
    width="1em"
    height="1em"
    viewBox="0 0 16 16"
    version="1.1"
    xmlns="http://www.w3.org/2000/svg"
    xmlns:xlink="http://www.w3.org/1999/xlink"
  >
    <title>知识库</title>
    <g
      id="页面-1"
      stroke="none"
      stroke-width="1"
      fill="none"
      fill-rule="evenodd"
    >
      <g
        id="icon未选中"
        transform="translate(-26, -258)"
        fill="currentColor"
        fill-rule="nonzero"
      >
        <g id="知识库" transform="translate(26, 258)">
          <rect id="矩形" opacity="0" x="0" y="0" width="16" height="16" />
          <path
            d="M12.1625,1.565625 C12.296875,1.565625 12.43125,1.571875 12.565625,1.584375 C12.9875,1.6234375 13.3109375,1.978125 13.3093806,2.4015625 L13.3093806,11.615625 C13.3093806,12.0578125 12.959375,12.41875 12.51875,12.434375 C11.7234375,12.4640625 11.0484375,12.5703125 10.496875,12.7546875 C9.7734375,12.996875 9.06875,13.4359375 8.3875,14.0703125 L8.3875,3.7671875 C8.890625,2.9015625 9.5953125,2.28125 10.496875,1.9046875 C11.025,1.6828125 11.590625,1.5671875 12.1625,1.565625 L12.1625,1.565625 Z M14.13125,11.809375 L14.13125,3.4015625 C14.3484375,3.4015625 14.5578125,3.4875 14.7109375,3.6421875 C14.8640625,3.796875 14.9515625,4.0046875 14.9515625,4.221875 L14.9515625,12.5640625 C14.9515625,13.215625 14.54375,14.2703125 13.3109375,14.1640625 C12.4421875,14.090625 12.3859375,14.059375 11.653125,14.071875 C10.9359375,14.084375 9.93125,14.059375 9.0328125,14.2703125 C9.5359375,13.85 10.271875,13.553125 10.759375,13.45 C11.2453125,13.3453125 11.853125,13.3 12.5671875,13.2734375 C13.4734375,13.240625 14.13125,12.559375 14.13125,11.809375 L14.13125,11.809375 Z M3.7921875,1.565625 C4.359375,1.565625 4.9140625,1.6796875 5.4578125,1.9046875 C6.359375,2.2796875 7.0640625,2.9015625 7.5671875,3.7671875 L7.5671875,14.071875 C6.8859375,13.4359375 6.18125,12.996875 5.4578125,12.75625 C4.90625,12.5734375 4.2328125,12.465625 3.4359375,12.4375 C2.9953125,12.421875 2.6453125,12.059375 2.64686979,11.6171875 L2.64686979,2.4015625 C2.64686979,1.978125 2.96875,1.625 3.390625,1.5859375 C3.5234375,1.571875 3.6578125,1.565625 3.7921875,1.565625 L3.7921875,1.565625 Z M1.8234375,11.809375 C1.8234375,12.4859375 2.3234375,13.234375 3.4046875,13.2734375 C4.1203125,13.3 4.5671875,13.378125 5.196875,13.45 C5.8265625,13.5203125 6.4328125,13.8515625 6.9359375,14.2703125 C6.0375,14.059375 5.1078125,14.071875 4.3015625,14.071875 C3.6671875,14.071875 3.55625,14.1640625 2.64375,14.1640625 C1.5671875,14.1640625 1.0015625,13.190625 1.0015625,12.5640625 L1.0015625,4.2203125 C1.0015625,3.7671875 1.36875,3.4 1.821875,3.4 L1.821875,11.809375 L1.8234375,11.809375 Z"
            id="形状"
          />
        </g>
      </g>
    </g>
  </svg>
