<svg
    width="1em"
    height="1em"
    viewBox="0 0 12.8 14.4"
    version="1.1"
    xmlns="http://www.w3.org/2000/svg"
    xmlns:xlink="http://www.w3.org/1999/xlink"
  >
    <title>编组 24</title>
    <g
      id="页面-1"
      stroke="none"
      stroke-width="1"
      fill="none"
      fill-rule="evenodd"
    >
      <g id="icon未选中" transform="translate(-27.6, -830.8)">
        <g id="编组-24" transform="translate(26, 830)">
          <rect id="矩形" x="0" y="0" width="16" height="16" />
          <g id="编组-2" transform="translate(1.6, 0.8)" fill="currentColor">
            <path
              d="M10.280315,0 C11.6718986,-6.99718968e-16 12.8,1.12810139 12.8,2.51968498 L12.8,11.880315 C12.8,13.2718986 11.6718986,14.4 10.280315,14.4 L2.51968498,14.4 C1.12810139,14.4 7.88407096e-16,13.2718986 0,11.880315 L0,2.51968498 C-1.70419839e-16,1.12810139 1.12810139,-1.88459451e-16 2.51968498,0 L10.280315,0 Z M6.79238845,7.68600884 L2.75301837,7.68600884 C2.476876,7.68600884 2.25301837,7.90986646 2.25301837,8.18600884 C2.25301837,8.46215121 2.476876,8.68600884 2.75301837,8.68600884 L6.79238845,8.68600884 C7.06853083,8.68600884 7.29238845,8.46215121 7.29238845,8.18600884 C7.29238845,7.90986646 7.06853083,7.68600884 6.79238845,7.68600884 Z M9.94199475,4.61875307 L2.75301837,4.61875307 C2.476876,4.61875307 2.25301837,4.84261069 2.25301837,5.11875307 C2.25301837,5.39489544 2.476876,5.61875307 2.75301837,5.61875307 L9.94199475,5.61875307 C10.2181371,5.61875307 10.4419948,5.39489544 10.4419948,5.11875307 C10.4419948,4.84261069 10.2181371,4.61875307 9.94199475,4.61875307 Z"
              id="形状结合"
            />
          </g>
        </g>
      </g>
    </g>
  </svg>
