<svg width="1em" height="1em" viewBox="0 0 14 14" version="1.1" xmlns="http://www.w3.org/2000/svg" xmlns:xlink="http://www.w3.org/1999/xlink">
    <title>编组 24</title>
    <g id="页面-1" stroke="none" stroke-width="1" fill="none" fill-rule="evenodd">
        <g id="icon未选中备份" transform="translate(-29, -831)">
            <g id="编组-8" transform="translate(12, 65)">
                <g id="编组-24" transform="translate(16, 765)">
                    <rect id="矩形" x="0" y="0" width="16" height="16"></rect>
                    <g id="编组-2" transform="translate(1, 1)">
                        <path d="M11.480315,0.5 C12.0380356,0.5 12.5429568,0.726060947 12.908448,1.09155205 C13.2739391,1.45704315 13.5,1.96196441 13.5,2.51968503 L13.5,11.480315 C13.5,12.0380356 13.2739391,12.5429568 12.908448,12.908448 C12.5429568,13.2739391 12.0380356,13.5 11.480315,13.5 L2.51968503,13.5 C1.96196441,13.5 1.45704315,13.2739391 1.09155205,12.908448 C0.726060947,12.5429568 0.5,12.0380356 0.5,11.480315 L0.5,2.51968503 C0.5,1.96196441 0.726060947,1.45704315 1.09155205,1.09155205 C1.45704315,0.726060947 1.96196441,0.5 2.51968503,0.5 Z" id="形状结合" stroke="currentColor"></path>
                        <rect id="矩形备份" fill="currentColor" x="1.85301837" y="7.48600884" width="5.03937008" height="1" rx="0.5"></rect>
                        <rect id="矩形备份-2" fill="currentColor" x="1.85301837" y="4.41875307" width="8.18897638" height="1" rx="0.5"></rect>
                    </g>
                </g>
            </g>
        </g>
    </g>
</svg>
