<?xml version="1.0" encoding="UTF-8"?>
<svg width="13.8564065px" height="15.3811978px" viewBox="0 0 13.8564065 15.3811978" version="1.1" xmlns="http://www.w3.org/2000/svg" xmlns:xlink="http://www.w3.org/1999/xlink">
    <title>编组 26备份</title>
    <g id="页面-1" stroke="none" stroke-width="1" fill="none" fill-rule="evenodd">
        <g id="外观设置" transform="translate(-25.0718, -993.3094)">
            <g id="编组-26备份" transform="translate(24, 993)">
                <rect id="矩形" x="0" y="0" width="16" height="16"></rect>
                <path d="M9,0.577350269 L13.9282032,3.42264973 C14.5470054,3.77991532 14.9282032,4.44016936 14.9282032,5.15470054 L14.9282032,10.8452995 C14.9282032,11.5598306 14.5470054,12.2200847 13.9282032,12.5773503 L9,15.4226497 C8.38119785,15.7799153 7.61880215,15.7799153 7,15.4226497 L2.07179677,12.5773503 C1.45299462,12.2200847 1.07179677,11.5598306 1.07179677,10.8452995 L1.07179677,5.15470054 C1.07179677,4.44016936 1.45299462,3.77991532 2.07179677,3.42264973 L7,0.577350269 C7.61880215,0.220084679 8.38119785,0.220084679 9,0.577350269 Z M7.5,1.44337567 L2.68279677,4.22440108 L4.17638713,5.08648267 C4.38896163,5.20921262 4.47732182,5.46446524 4.39736123,5.68763296 L4.35939983,5.76949537 C4.22132864,6.00864169 3.91553344,6.09057926 3.67638713,5.95250808 L2.0794971,5.03071015 C2.07440179,5.07153689 2.07179677,5.11293326 2.07179677,5.15470054 L2.07179677,10.8452995 C2.07179677,11.2025651 2.26239569,11.5326921 2.57179677,11.7113249 L7.5,14.5566243 L7.50841739,12.5 C7.50841739,12.2238576 7.73227501,12 8.00841739,12 C8.28455976,12 8.50841739,12.2238576 8.50841739,12.5 L8.50779677,14.5514011 L13.4282032,11.7113249 C13.7376043,11.5326921 13.9282032,11.2025651 13.9282032,10.8452995 L13.9282032,5.15470054 L13.9247968,5.09740108 L12.4443363,5.95250808 C12.20519,6.09057926 11.8993948,6.00864169 11.7613236,5.76949537 C11.6232524,5.53034906 11.70519,5.22455386 11.9443363,5.08648267 L13.3767968,4.25940108 L8.5,1.44337567 C8.19059892,1.26474288 7.80940108,1.26474288 7.5,1.44337567 Z M8.66,6.65239637 C8.92644533,6.65239637 9.21885191,6.75556022 9.53797725,6.95884721 C9.55799858,6.97218893 9.55799858,6.97218893 9.57680629,6.98714244 C9.73952624,7.12216538 9.7619791,7.36353367 9.62695617,7.52625362 C9.49039601,7.69082612 9.25447766,7.73173967 9.07049458,7.62275549 C8.9166081,7.53161941 8.78438238,7.48739637 8.675,7.48739637 C8.1572792,7.48739637 7.795,7.94153923 7.795,8.66239637 C7.795,9.40901388 8.13097152,9.85239637 8.66,9.85239637 C8.79247323,9.85239637 8.95369424,9.79305138 9.14200585,9.67103009 C9.32103129,9.55505306 9.55833389,9.59002726 9.6962757,9.75272785 C9.70957229,9.7690104 9.70957229,9.7690104 9.72163358,9.786228 C9.83888157,9.96034671 9.79278402,10.1965473 9.61866739,10.3138238 C9.24570886,10.5649665 8.91866991,10.6923964 8.635,10.6923964 C7.58306425,10.6923964 6.84,9.91301126 6.84,8.68739637 C6.84,7.4711065 7.61391278,6.65239637 8.66,6.65239637 Z M11.625,6.72239637 C12.603972,6.72239637 13.175,7.11909611 13.175,7.98239637 C13.175,8.83214897 12.5635446,9.30739637 11.645,9.30739637 L11.25,9.30639637 L11.25,10.1523964 C11.25,10.3831287 11.0837373,10.5750282 10.8644831,10.614824 L10.78,10.6223964 C10.5204262,10.6223964 10.31,10.4119702 10.31,10.1523964 L10.31,6.82239637 L10.41,6.72239637 L11.625,6.72239637 Z M5.805,6.72239637 C6.08666522,6.72239637 6.315,6.95073115 6.315,7.23239637 L6.315,10.1848964 C6.315,10.426521 6.11912458,10.6223964 5.8775,10.6223964 C5.63587542,10.6223964 5.44,10.426521 5.44,10.1848964 L5.44,8.97739637 C5.44,8.8556359 5.44634118,8.71070713 5.45835055,8.54039688 L5.462,8.49339637 L5.40212765,8.66516215 L5.2455278,9.09883858 L4.90702615,10.0222948 C4.84865723,10.1815293 4.69709527,10.2873964 4.5275,10.2873964 C4.35793917,10.2873964 4.20631465,10.1818047 4.14750702,10.0227685 L3.80551218,9.09789546 L3.64869427,8.66475088 L3.59779677,8.52140108 L3.60023503,8.54143761 C3.61320706,8.712554 3.62,8.85618673 3.62,8.97739637 L3.62,10.1898964 C3.62,10.4287595 3.42636315,10.6223964 3.1875,10.6223964 C2.94863685,10.6223964 2.755,10.4287595 2.755,10.1898964 L2.755,7.23239637 C2.755,6.95073115 2.98333478,6.72239637 3.265,6.72239637 C3.55320201,6.72239637 3.8106402,6.90262408 3.90925692,7.1734287 L4.39944968,8.51954431 C4.43579515,8.62403753 4.46632526,8.71868223 4.51320866,8.87113557 L4.543,8.96939637 L4.55562491,8.9307556 L4.57177244,8.87722867 C4.62185837,8.71142696 4.65094343,8.61903911 4.68577662,8.51890078 L5.16344468,7.17521663 C5.25995167,6.9037417 5.51688155,6.72239637 5.805,6.72239637 Z M11.25,7.50639637 L11.25,8.52139637 L11.595,8.52239637 C12.049713,8.52239637 12.25,8.35115097 12.25,7.98239637 C12.25,7.63747043 12.0603087,7.50739637 11.57,7.50739637 L11.25,7.50639637 Z" id="形状结合" fill="currentColor" fill-rule="nonzero"></path>
            </g>
        </g>
    </g>
</svg>
