<svg width="1em" height="1em" viewBox="0 0 16 16" version="1.1" xmlns="http://www.w3.org/2000/svg" xmlns:xlink="http://www.w3.org/1999/xlink">
    <title>菜单</title>
    <g id="页面-1" stroke="none" stroke-width="1" fill="none" fill-rule="evenodd">
        <g id="icon未选中备份" transform="translate(-26, -590)" fill-rule="nonzero">
            <g id="编组-8" transform="translate(12, 65)">
                <g id="菜单" transform="translate(14, 525)">
                    <rect id="矩形" fill="currentColor" opacity="0" x="0" y="0" width="16" height="16"></rect>
                    <g id="编组" transform="translate(0.8, 0.8)" stroke="currentColor">
                        <path d="M1.71559633,6 L6,6 L6,1.71559633 C6,0.770642202 5.2293578,0 4.28440367,0 L1.71559633,0 C0.770642202,0 0,0.770642202 0,1.71559633 L0,4.28440367 C0,5.2293578 0.770642202,6 1.71559633,6 Z M1.71559633,8.4 L6,8.4 L6,12.6844037 C6,13.6293578 5.2293578,14.4 4.28440367,14.4 L1.71559633,14.4 C0.770642202,14.4 0,13.6293578 0,12.6844037 L0,10.1155963 C0,9.1706422 0.770642202,8.4 1.71559633,8.4 Z M8.4,6 L12.6844037,6 C13.6293578,6 14.4,5.2293578 14.4,4.28440367 L14.4,1.71559633 C14.4,0.770642202 13.6293578,0 12.6844037,0 L10.1155963,0 C9.1706422,0 8.4,0.770642202 8.4,1.71559633 L8.4,6 Z M8.4,8.4 L12.6844037,8.4 C13.6293578,8.4 14.4,9.1706422 14.4,10.1155963 L14.4,12.6844037 C14.4,13.6293578 13.6293578,14.4 12.6844037,14.4 L10.1155963,14.4 C9.1706422,14.4 8.4,13.6293578 8.4,12.6844037 L8.4,8.4 Z" id="形状"></path>
                    </g>
                </g>
            </g>
        </g>
    </g>
</svg>
