<svg
    width="1em"
    height="1em"
    viewBox="0 0 16 16"
    version="1.1"
    xmlns="http://www.w3.org/2000/svg"
    xmlns:xlink="http://www.w3.org/1999/xlink"
  >
    <title>菜单</title>
    <g
      id="页面-1"
      stroke="none"
      stroke-width="1"
      fill="none"
      fill-rule="evenodd"
    >
      <g
        id="icon未选中"
        transform="translate(-26, -590)"
        fill="currentColor"
        fill-rule="nonzero"
      >
        <g id="菜单" transform="translate(26, 590)">
          <rect id="矩形" opacity="0" x="0" y="0" width="16" height="16" />
          <g id="编组" transform="translate(0.8, 0.8)">
            <path
              d="M1.8972733,6.63538364 L6.63538364,6.63538364 L6.63538364,1.8972733 C6.63538364,0.85225111 5.78313253,0 4.73811034,0 L1.8972733,0 C0.85225111,0 0,0.85225111 0,1.8972733 L0,4.73811034 C0,5.78313253 0.85225111,6.63538364 1.8972733,6.63538364 Z M1.8972733,7.76461636 L6.63538364,7.76461636 L6.63538364,12.5027267 C6.63538364,13.5477489 5.78313253,14.4 4.73811034,14.4 L1.8972733,14.4 C0.85225111,14.4 0,13.5477489 0,12.5027267 L0,9.66188966 C0,8.61686747 0.85225111,7.76461636 1.8972733,7.76461636 Z M7.76461636,6.63538364 L12.5027267,6.63538364 C13.5477489,6.63538364 14.4,5.78313253 14.4,4.73811034 L14.4,1.8972733 C14.4,0.85225111 13.5477489,0 12.5027267,0 L9.66188966,0 C8.61686747,0 7.76461636,0.85225111 7.76461636,1.8972733 L7.76461636,6.63538364 Z M7.76461636,7.76461636 L12.5027267,7.76461636 C13.5477489,7.76461636 14.4,8.61686747 14.4,9.66188966 L14.4,12.5027267 C14.4,13.5477489 13.5477489,14.4 12.5027267,14.4 L9.66188966,14.4 C8.61686747,14.4 7.76461636,13.5477489 7.76461636,12.5027267 L7.76461636,7.76461636 Z"
              id="形状"
            />
          </g>
        </g>
      </g>
    </g>
  </svg>
