
<svg width="1em" height="1em" viewBox="0 0 15.0344828 14.4140854" version="1.1" xmlns="http://www.w3.org/2000/svg" xmlns:xlink="http://www.w3.org/1999/xlink">
    <title>编组 9</title>
    <g id="页面-1" stroke="none" stroke-width="1" fill="none" fill-rule="evenodd">
        <g id="icon未选中备份" transform="translate(-25.4655, -161.5)">
            <g id="编组-8" transform="translate(12, 65)">
                <g id="编组-9" transform="translate(13, 96)">
                    <rect id="矩形" x="0" y="0" width="16" height="16"></rect>
                    <path d="M5.07448664,3.55045142 L2.96551724,3.55045142 C1.86094774,3.55045142 0.965517241,4.44588192 0.965517241,5.55045142 L0.965517241,12.4140854 C0.965517241,13.5186549 1.86094774,14.4140854 2.96551724,14.4140854 C3.66850704,14.4140854 4.37149684,14.4140854 5.07448664,14.4140854 C5.07448664,13.9457515 5.07448664,13.4774176 5.07448664,13.0090837 C5.07448664,12.2012255 5.72938511,11.5463271 6.53724332,11.5463271 C7.34510153,11.5463271 8,12.2012255 8,13.0090837 L8,14.4140854 L8,14.4140854 L10.4534534,14.4140854 C11.5580229,14.4140854 12.4534534,13.5186549 12.4534534,12.4140854 L12.4534534,10.3620717 L12.4534534,10.3620717 L13.4810155,10.3620717 C14.3199275,10.3620717 15,9.68199916 15,8.84308717 C15,8.00417519 14.3199275,7.32410266 13.4810155,7.32410266 L12.4534534,7.32410266 L12.4534534,7.32410266 L12.4534534,5.55045142 C12.4534534,4.44588192 11.5580229,3.55045142 10.4534534,3.55045142 L8.03300467,3.55045142 L8.03300467,3.55045142 L8.03300467,2.47925902 C8.03300467,1.66228682 7.37071785,1 6.55374565,1 C5.73677346,1 5.07448664,1.66228682 5.07448664,2.47925902 L5.07448664,3.55045142 L5.07448664,3.55045142 Z" id="路径-11" stroke="currentColor"></path>
                </g>
            </g>
        </g>
    </g>
</svg>
