<svg
    width="1em"
    height="1em"
    viewBox="0 0 14.4 14.4"
    version="1.1"
    xmlns="http://www.w3.org/2000/svg"
    xmlns:xlink="http://www.w3.org/1999/xlink"
  >
    <title>编组 12</title>
    <g
      id="页面-1"
      stroke="none"
      stroke-width="1"
      fill="none"
      fill-rule="evenodd"
    >
      <g id="icon未选中" transform="translate(-26.8, -162.8)">
        <g id="编组-12" transform="translate(26, 162)">
          <rect id="矩形" x="0" y="0" width="16" height="16" />
          <path
            d="M13.193031,8.63847607 C12.6375291,8.63847607 12.2611801,8.86758153 12.2611801,8.86758153 C11.9798687,9.03878089 11.7496056,8.91486996 11.7496056,8.59218567 L11.7496056,5.14063397 C11.7496056,4.81794968 11.4780702,4.55393512 11.1461921,4.55393512 L6.50829368,4.55393512 C6.17641554,4.55393512 6.0788435,4.3512308 6.29148663,4.10346774 C6.29148663,4.10346774 6.74959876,3.56968877 6.74959876,2.89234483 C6.74959876,1.73678231 5.78612738,0.8 4.59758404,0.8 C3.40910037,0.8 2.4456298,1.73678231 2.4456298,2.89234483 C2.4456298,3.56968877 2.90368146,4.10346774 2.90368146,4.10346774 C3.11632378,4.3512308 3.01875255,4.55393512 2.68687441,4.55393512 L1.40341348,4.55393512 C1.07153615,4.55393512 0.8,4.81794968 0.8,5.14063397 L0.8,7.7442868 C0.8,8.06697188 1.03551238,8.19962439 1.32340097,8.03898628 C1.32340097,8.03898628 1.49078781,7.94558306 1.91299631,7.94558306 C2.88588001,7.94558306 3.67454225,8.71234045 3.67454225,9.65827515 C3.67454225,10.6042107 2.88588001,11.371026 1.91299631,11.371026 C1.49078781,11.371026 1.32340097,11.2776824 1.32340097,11.2776824 C1.03551238,11.1172199 0.8,11.2497556 0.8,11.5724407 L0.8,14.6133012 C0.8,14.9359854 1.07153615,15.2 1.40341348,15.2 L3.73252974,15.2 C4.06440789,15.2 4.19746022,14.972889 4.02814303,14.6952635 C4.02814303,14.6952635 3.92429529,14.5250606 3.92429529,14.1090923 C3.92429529,13.1764753 4.70173335,12.420748 5.66067796,12.420748 C6.61968387,12.420748 7.39712193,13.1766509 7.39712193,14.1090923 C7.39712193,14.5250606 7.29327419,14.6952635 7.29327419,14.6952635 C7.12401665,14.9727126 7.25706899,15.2 7.58894632,15.2 L11.1461921,15.2 C11.4780702,15.2 11.7496056,14.9359854 11.7496056,14.6133012 L11.7496056,12.8691033 C11.7496056,12.546419 11.9796881,12.4225081 12.2610591,12.5938243 C12.2610591,12.5938243 12.6375291,12.8228717 13.193031,12.8228717 C14.3813946,12.8228717 15.09831,11.2660659 15.09831,11.2660659 C15.2338967,10.9715429 15.2338967,10.4896277 15.09831,10.1951054 C15.09831,10.1952811 14.3813946,8.63847607 13.193031,8.63847607 Z"
            id="Fill-257"
            fill="currentColor"
          />
        </g>
      </g>
    </g>
  </svg>
