<svg
    width="1em"
    height="1em"
    viewBox="0 0 14.4 14.6321198"
    version="1.1"
    xmlns="http://www.w3.org/2000/svg"
    xmlns:xlink="http://www.w3.org/1999/xlink"
  >
    <title>编组 6</title>
    <g
      id="页面-1"
      stroke="none"
      stroke-width="1"
      fill="none"
      fill-rule="evenodd"
    >
      <g id="icon未选中" transform="translate(-26.8, -306.8)">
        <g id="编组-6" transform="translate(26, 306)">
          <rect id="矩形" x="0" y="0" width="16" height="16" />
          <g
            id="编组"
            transform="translate(0.8, 0.8)"
            fill="currentColor"
            fill-rule="nonzero"
          >
            <path
              d="M13.37,5.99976 L13.6951538,6.15690021 C14.1299281,6.366288 14.4,6.76602937 14.4,7.20016368 C14.4,7.63429799 14.1299281,8.03403935 13.6951538,8.24342715 L7.85421264,11.0528547 C7.44594056,11.2490484 6.95133639,11.2490484 6.54306431,11.0528547 L0.70484624,8.24342715 C0.270071947,8.03403935 0,7.63429799 0,7.20016368 C0,6.76602937 0.270071947,6.366288 0.70484624,6.15690021 L1.029,6.00076 L6.54170279,8.6528547 C6.9046113,8.82724913 7.33573282,8.84662629 7.71379978,8.71098618 L7.85285111,8.6528547 L13.37,5.99976 Z"
              id="形状结合备份-2"
            />
            <path
              d="M13.371,9.43231477 L13.6951538,9.58902 C14.1299281,9.7984078 14.4,10.1981492 14.4,10.6322835 C14.4,11.0664178 14.1299281,11.4661591 13.6951538,11.6755469 L7.85421264,14.4849745 C7.44594056,14.6811682 6.95133639,14.6811682 6.54306431,14.4849745 L0.70484624,11.6755469 C0.270071947,11.4661591 0,11.0664178 0,10.6322835 C0,10.1981492 0.270071947,9.7984078 0.70484624,9.58902 L1.028,9.43231477 L6.54306431,12.0849745 C6.90597283,12.2593689 7.33709435,12.2787461 7.71516131,12.143106 L7.85421264,12.0849745 L13.371,9.43231477 Z"
              id="形状结合"
            />
            <path
              d="M0.70484624,2.89912624 L6.54306431,0.144591234 C6.95169203,-0.0481970779 7.44694644,-0.0481970779 7.85557416,0.144591234 L13.6951538,2.89912624 C14.1299281,3.10442288 14.4,3.49635382 14.4,3.92200571 C14.4,4.34765761 14.1299281,4.73958855 13.6951538,4.94488518 L7.85285111,7.69942019 C7.44457903,7.89178055 6.94997487,7.89178055 6.54170279,7.69942019 L0.70484624,4.94488518 C0.270071947,4.73958855 0,4.34765761 0,3.92200571 C0,3.49635382 0.270071947,3.10442288 0.70484624,2.89912624 Z"
              id="路径备份-7"
            />
          </g>
        </g>
      </g>
    </g>
  </svg>
