<svg
    width="1em"
    height="1em"
    viewBox="0 0 14.4 14.4"
    version="1.1"
    xmlns="http://www.w3.org/2000/svg"
    xmlns:xlink="http://www.w3.org/1999/xlink"
  >
    <title>编组 19</title>
    <g
      id="页面-1"
      stroke="none"
      stroke-width="1"
      fill="none"
      fill-rule="evenodd"
    >
      <g id="icon未选中" transform="translate(-26.8, -542.8)">
        <g id="编组-19" transform="translate(26, 542)">
          <rect id="矩形" x="0" y="0" width="16" height="16" />
          <g
            id="编组"
            transform="translate(0.8, 0.8)"
            fill="currentColor"
            fill-rule="nonzero"
          >
            <path
              d="M7.2,0 C3.22392857,0 0,3.22392857 0,7.2 C0,11.1760714 3.22392857,14.4 7.2,14.4 C11.1760714,14.4 14.4,11.1760714 14.4,7.2 C14.4,3.22392857 11.1760714,0 7.2,0 Z M3.75107143,5.49160714 C3.75107143,4.93875 4.19946429,4.49035714 4.75232143,4.49035714 C5.30517857,4.49035714 5.75357143,4.93875 5.75357143,5.49160714 L5.75357143,5.49321429 C5.75357143,6.04607143 5.30517857,6.49446429 4.75232143,6.49446429 C4.19785714,6.49285714 3.75107143,6.04446429 3.75107143,5.49160714 L3.75107143,5.49160714 Z M9.64767857,6.49285714 C9.09482143,6.49285714 8.64642857,6.04446429 8.64642857,5.49160714 C8.64642857,4.93875 9.09482143,4.49035714 9.64767857,4.49035714 C10.2005357,4.49035714 10.6489286,4.93875 10.6489286,5.49160714 C10.6489286,6.04446429 10.2005357,6.49285714 9.64767857,6.49285714 Z"
              id="形状"
            />
          </g>
          <path
            d="M8,11.9702381 C6.43154762,11.9702381 5.16071429,10.6994048 5.16071429,9.13095238 L10.8392857,9.13095238 C10.8392857,10.6994048 9.56845238,11.9702381 8,11.9702381 Z"
            id="路径"
            fill="#FFFFFF"
            fill-rule="nonzero"
          />
        </g>
      </g>
    </g>
  </svg>
