<svg width="1em" height="1em" viewBox="0 0 16 16" version="1.1" xmlns="http://www.w3.org/2000/svg" xmlns:xlink="http://www.w3.org/1999/xlink">
    <title>138设置、系统设置、功能设置、属性备份</title>
    <g id="页面-1" stroke="none" stroke-width="1" fill="none" fill-rule="evenodd">
        <g id="icon未选中备份" transform="translate(-26, -922)" fill-rule="nonzero">
            <g id="编组-8" transform="translate(12, 65)">
                <g id="138设置、系统设置、功能设置、属性备份" transform="translate(14, 857)">
                    <rect id="矩形" fill="currentColor" opacity="0" x="0" y="0" width="16" height="16"></rect>
                    <path d="M14.8703125,6.7 C14.8671875,6.671875 14.8640625,6.6484375 14.859375,6.634375 L14.859375,6.621875 L14.853125,6.5875 C14.7421875,6.046875 14.384375,5.6984375 13.9390625,5.6984375 L13.865625,5.6984375 C13.10625,5.6984375 12.490625,5.0796875 12.490625,4.3234375 C12.490625,4.1484375 12.571875,3.9 12.60625,3.8125 C12.821875,3.309375 12.5921875,2.7359375 12.059375,2.44375 L10.3828125,1.4953125 L10.3515625,1.484375 C10.2265625,1.44375 10.08125,1.3953125 9.91875,1.3953125 C9.615625,1.3953125 9.275,1.5359375 9.0640625,1.746875 C8.8,2.0078125 8.2640625,2.396875 7.9453125,2.396875 C7.628125,2.396875 7.090625,2.009375 6.8265625,1.746875 C6.6015625,1.525 6.290625,1.3953125 5.971875,1.3953125 C5.8046875,1.3953125 5.6640625,1.4421875 5.5390625,1.484375 L5.5109375,1.4953125 L3.753125,2.446875 L3.7421875,2.453125 C3.315625,2.7203125 3.1421875,3.3328125 3.359375,3.81875 L3.3625,3.825 L3.365625,3.83125 C3.4,3.9078125 3.50625,4.1671875 3.50625,4.39375 C3.50625,5.153125 2.8875,5.76875 2.13125,5.76875 L2.0578125,5.76875 C1.5921875,5.76875 1.24375,6.1125 1.14375,6.6640625 L1.1375,6.6953125 L1.1375,6.70625 C1.1375,6.721875 1.13125,6.74375 1.1265625,6.771875 C1.0875,7.0078125 0.99375,7.5640625 0.99375,8.01875 C0.99375,8.4734375 1.0859375,9.0296875 1.1265625,9.265625 C1.1296875,9.29375 1.1328125,9.3171875 1.1375,9.33125 L1.1375,9.34375 L1.14375,9.378125 C1.2546875,9.91875 1.6125,10.2671875 2.0578125,10.2671875 L2.0953125,10.2671875 C2.8546875,10.2671875 3.4703125,10.8859375 3.4703125,11.6421875 C3.4703125,11.8171875 3.3890625,12.065625 3.3546875,12.153125 C3.146875,12.6265625 3.34375,13.234375 3.803125,13.540625 L3.815625,13.546875 L5.471875,14.46875 L5.503125,14.4796875 C5.628125,14.5203125 5.7703125,14.56875 5.9328125,14.56875 C6.2796875,14.56875 6.5921875,14.4359375 6.7875,14.2171875 C6.80625,14.203125 6.825,14.184375 6.846875,14.165625 C7.046875,13.990625 7.584375,13.528125 7.9390625,13.528125 C8.203125,13.528125 8.6453125,13.8046875 9.090625,14.25 C9.315625,14.471875 9.6265625,14.6015625 9.9453125,14.6015625 C10.1609375,14.6015625 10.3203125,14.5421875 10.5015625,14.453125 L10.5078125,14.45 L12.20625,13.5109375 L12.2125,13.5046875 C12.6390625,13.2375 12.8125,12.625 12.5953125,12.1390625 L12.5921875,12.1328125 L12.5890625,12.1265625 C12.5859375,12.125 12.453125,11.8484375 12.478125,11.6 L12.48125,11.584375 L12.48125,11.56875 C12.48125,10.809375 13.1,10.19375 13.85625,10.19375 L13.934375,10.19375 C14.4,10.19375 14.7484375,9.85 14.8484375,9.2984375 L14.8546875,9.2671875 L14.8546875,9.25625 C14.8578125,9.24375 14.8609375,9.225 14.865625,9.2 C14.90625,8.9703125 15.0000775,8.434375 15.0000775,7.94375 C15.003125,7.490625 14.9109375,6.9359375 14.8703125,6.7 L14.8703125,6.7 Z M7.9953125,10.175 C6.79375,10.175 5.8203125,9.2015625 5.8203125,8 C5.8203125,6.7984375 6.79375,5.825 7.9953125,5.825 C9.196875,5.825 10.1703125,6.7984375 10.1703125,8 C10.1703125,9.2015625 9.196875,10.175 7.9953125,10.175 L7.9953125,10.175 Z" id="形状" stroke="currentColor"></path>
                </g>
            </g>
        </g>
    </g>
</svg>
