<svg width="1em" height="1em" viewBox="0 0 14.3333333 14.3333333" version="1.1" xmlns="http://www.w3.org/2000/svg" xmlns:xlink="http://www.w3.org/1999/xlink">
    <title>编组 18</title>
    <g id="页面-1" stroke="none" stroke-width="1" fill="none" fill-rule="evenodd">
        <g id="icon未选中备份" transform="translate(-27.6667, -782.5)">
            <g id="编组-8" transform="translate(12, 65)">
                <g id="编组-18" transform="translate(15, 717)">
                    <rect id="矩形" x="0" y="0" width="16" height="16"></rect>
                    <g id="编组" transform="translate(1, 1)" stroke="currentColor" stroke-linecap="round" stroke-linejoin="round">
                        <rect id="矩形" x="0.166666667" y="0" width="13.3333333" height="13.3333333" rx="2"></rect>
                        <line x1="0.166666667" y1="3.33333333" x2="13.5" y2="3.33333333" id="路径"></line>
                        <line x1="13.5" y1="2.33333333" x2="13.5" y2="6.33333333" id="路径"></line>
                        <line x1="2.83333333" y1="6" x2="4.16666667" y2="6" id="路径"></line>
                        <line x1="6.16666667" y1="6" x2="7.5" y2="6" id="路径"></line>
                        <line x1="9.5" y1="6" x2="10.8333333" y2="6" id="路径"></line>
                        <line x1="2.83333333" y1="8.33333333" x2="4.16666667" y2="8.33333333" id="路径"></line>
                        <line x1="6.16666667" y1="8.33333333" x2="7.5" y2="8.33333333" id="路径"></line>
                        <line x1="9.5" y1="8.33333333" x2="10.8333333" y2="8.33333333" id="路径"></line>
                        <line x1="2.83333333" y1="10.6666667" x2="4.16666667" y2="10.6666667" id="路径"></line>
                        <line x1="6.16666667" y1="10.6666667" x2="7.5" y2="10.6666667" id="路径"></line>
                        <line x1="9.5" y1="10.6666667" x2="10.8333333" y2="10.6666667" id="路径"></line>
                        <line x1="0.166666667" y1="2.33333333" x2="0.166666667" y2="6.33333333" id="路径"></line>
                    </g>
                </g>
            </g>
        </g>
    </g>
</svg>
