<svg
    width="1em"
    height="1em"
    viewBox="0 0 16 16"
    version="1.1"
    xmlns="http://www.w3.org/2000/svg"
    xmlns:xlink="http://www.w3.org/1999/xlink"
  >
    <title>菜单备份 4</title>
    <g
      id="页面-1"
      stroke="none"
      stroke-width="1"
      fill="none"
      fill-rule="evenodd"
    >
      <g id="icon未选中" transform="translate(-26, -782)">
        <g id="菜单备份-4" transform="translate(26, 782)">
          <rect
            id="矩形"
            fill="#000000"
            fill-rule="nonzero"
            opacity="0"
            x="0"
            y="0"
            width="16"
            height="16"
          />
          <path
            d="M4.65188747,2.40056864 C4.83741527,3.31318145 5.64438246,4 6.61176471,4 L9.38823529,4 C10.3556175,4 11.1625847,3.31318145 11.3481125,2.40056864 L12.1777779,2.4 C13.4050773,2.4 14.4,3.39492274 14.4,4.62222214 L14.4,12.9777779 C14.4,14.2050773 13.4050773,15.2 12.1777779,15.2 L3.82222214,15.2 C2.59492274,15.2 1.6,14.2050773 1.6,12.9777779 L1.6,4.62222214 C1.6,3.39492274 2.59492274,2.4 3.82222214,2.4 L4.65188747,2.40056864 Z M8,5.6 C5.790861,5.6 4,7.390861 4,9.6 C4,11.809139 5.790861,13.6 8,13.6 C10.209139,13.6 12,11.809139 12,9.6 C12,7.390861 10.209139,5.6 8,5.6 Z M8,6.4 C9.7673112,6.4 11.2,7.8326888 11.2,9.6 C11.2,11.3673112 9.7673112,12.8 8,12.8 C6.2326888,12.8 4.8,11.3673112 4.8,9.6 C4.8,7.8326888 6.2326888,6.4 8,6.4 Z M7.6,7.2 C7.3812491,7.2 7.20391646,7.37733264 7.20391646,7.59608354 L7.203,9.969 L7.2,10 C7.2,10.2209139 7.3790861,10.4 7.6,10.4 L10,10.4 C10.2209139,10.4 10.4,10.2209139 10.4,10 C10.4,9.7790861 10.2209139,9.6 10,9.6 L7.996,9.599 L7.99608354,7.59608354 C7.99608354,7.37733264 7.8187509,7.2 7.6,7.2 Z M9.2,0.8 C9.8627417,0.8 10.4,1.3372583 10.4,2 C10.4,2.6627417 9.8627417,3.2 9.2,3.2 L6.8,3.2 C6.1372583,3.2 5.6,2.6627417 5.6,2 C5.6,1.3372583 6.1372583,0.8 6.8,0.8 L9.2,0.8 Z"
            id="形状结合"
            fill="currentColor"
          />
        </g>
      </g>
    </g>
  </svg>
