<?xml version="1.0" encoding="UTF-8"?>
<svg width="13.9000049px" height="13.899695px" viewBox="0 0 13.9000049 13.899695" version="1.1" xmlns="http://www.w3.org/2000/svg" xmlns:xlink="http://www.w3.org/1999/xlink">
    <title>编组 6</title>
    <g id="页面-1" stroke="none" stroke-width="1" fill="none" fill-rule="evenodd">
        <g id="画板" transform="translate(-152, -181)">
            <g id="编组-6" transform="translate(151, 180)">
                <rect id="矩形备份" x="0" y="0" width="16" height="16"></rect>
                <g id="编组-5" transform="translate(1, 1)" fill="currentColor" fill-rule="nonzero">
                    <path d="M6.95000243,0 C9.56692961,0 11.8461888,0.676314109 13.0310063,1.6793644 C13.5851791,2.1471235 13.9000049,2.68440094 13.9000049,3.25743066 L13.9000049,10.6422643 C13.9000049,12.4398099 10.7884933,13.899695 6.95000243,13.899695 C3.11151152,13.899695 0,12.4398099 0,10.6432574 L0,3.25842378 C0,2.68539406 0.314825775,2.14811662 0.868998589,1.67837128 C2.05381609,0.677307228 4.33307525,0 6.95000243,0 Z M6.95000243,0.868979215 C6.06809301,0.868979215 5.21498468,0.948428744 4.41451283,1.1073278 C3.72190803,1.23706867 3.04737681,1.44945957 2.4053881,1.73994467 C1.88001638,1.98524509 1.45991763,2.27324963 1.19176949,2.57118536 C0.978244126,2.80854082 0.868998589,3.03894446 0.868998589,3.25743066 C0.868998589,3.47591686 0.977250985,3.70731361 1.19176949,3.94168972 C1.46091077,4.23863233 1.88001638,4.52663687 2.4053881,4.77293041 C3.04737681,5.06341551 3.72190803,5.27580641 4.41451283,5.40554728 C5.21498468,5.56444634 6.06908615,5.64389586 6.95000243,5.64389586 L6.832,5.641 L5.96970158,6.48277731 C3.88066368,6.34482293 2.09008131,5.7722365 1.02968447,4.96444788 L0.868998589,4.83549691 L0.868998589,6.94488189 C0.868998589,7.16138185 0.977250985,7.39178549 1.19176949,7.63013407 C1.46091077,7.92707668 1.88001638,8.21508122 2.4053881,8.46038164 C2.63527071,8.56440199 2.86932656,8.65840784 3.10689118,8.74218999 L2.80447504,9.55811924 C2.01247944,9.28198898 1.35040014,8.92869597 0.868998589,8.52195503 L0.868998589,10.6422643 C0.868998589,10.8607505 0.977250985,11.0911541 1.19176949,11.3275165 C1.45991763,11.6254522 1.88001638,11.9134568 2.40439495,12.1587572 C3.04638367,12.4492423 3.72091488,12.6616332 4.41351969,12.7913741 C5.21399154,12.9502731 6.06809301,13.0297226 6.94900929,13.0297226 C7.82992558,13.0297226 8.68402705,12.9502731 9.48449889,12.7913741 C10.2432588,12.6404199 10.919588,12.4288856 11.4936236,12.1587572 C12.0189953,11.9134568 12.4390941,11.6254522 12.7072422,11.3275165 C12.9207676,11.0921473 13.0300131,10.8607505 13.0300131,10.6422643 L13.0310063,8.52195503 C11.8461888,9.52301908 9.56692961,10.2003263 6.95000243,10.2003263 C6.49204904,10.2003263 6.04443632,10.1795846 5.61121989,10.1399958 L5.75866198,10.0660333 L5.84198483,10.0243553 C6.09450452,9.86976904 6.32042371,9.54302772 6.33386783,9.31604941 C6.53618391,9.32693237 6.74234817,9.3313471 6.95000243,9.3313471 C7.83091872,9.3313471 8.68502019,9.25189757 9.48549203,9.09299851 C10.1780945,8.96324834 10.8526246,8.75085778 11.4946168,8.46038164 C12.0199885,8.21508122 12.4400872,7.92707668 12.7082354,7.62914095 C12.9217607,7.39377172 13.0310063,7.16237497 13.0310063,6.94388877 L13.0310063,4.83649003 C12.1388659,5.59026826 10.6262052,6.16048465 8.81610488,6.39620195 L9.47934294,5.75314063 L9.50701542,5.75896733 C9.68701808,5.78608347 9.87159046,5.78446788 10.0539011,5.75291049 C10.593481,5.65951095 11.0289208,5.32254143 11.2628007,4.87602179 L11.4946168,4.77293041 C12.0199885,4.52762999 12.4400872,4.23962545 12.7082354,3.94168972 C12.9217607,3.70532737 13.0310063,3.47492374 13.0310063,3.25643754 C13.0310063,3.03894446 12.9227539,2.80854082 12.7082354,2.57118536 C12.4390941,2.27324963 12.0199885,1.98623821 11.4946168,1.73994467 C10.8526212,1.44947748 10.1780922,1.23708726 9.48549203,1.1073278 C8.68502019,0.948428744 7.83191186,0.868979215 6.95000243,0.868979215 Z" id="形状结合"></path>
                    <g id="编组备份-3" transform="translate(6.8999, 6.9147) scale(-1, -1) translate(-6.8999, -6.9147)translate(2.8495, 2.9494)">
                        <path d="M7.94152842,0.280411499 C7.96026045,0.326614058 7.96106095,0.378147046 7.94377302,0.424909134 L7.2653598,2.25994696 C7.22705761,2.36355043 7.11202034,2.41648759 7.00841686,2.37818539 C6.94237858,2.35377105 6.89404194,2.29643158 6.88115032,2.2272151 L6.807,1.833 L2.28123984,6.30919279 C2.44072093,6.67492067 2.39984112,7.10089964 2.16196485,7.43398081 C1.88641587,7.81981239 1.40079873,8.00500624 0.931561613,7.9032046 C0.462324493,7.80140297 0.101878461,7.43265456 0.0183031315,6.96891046 C-0.095810253,6.33571634 0.335516846,5.73175978 0.98172202,5.61990375 C1.20021338,5.5820836 1.41950632,5.60552135 1.6177136,5.68078833 L6.143,1.306 L5.90417149,1.30642284 C5.79371453,1.30642284 5.70417148,1.21687979 5.70417148,1.10642284 C5.70417148,1.02498275 5.7535531,0.951675983 5.8290261,0.92107675 L7.68103694,0.170210795 C7.78340076,0.128709145 7.90002677,0.178047681 7.94152842,0.280411499 Z" id="形状结合"></path>
                    </g>
                </g>
            </g>
        </g>
    </g>
</svg>
