<svg
    width="1em"
    height="1em"
    viewBox="0 0 14.2666667 13.4626497"
    version="1.1"
    xmlns="http://www.w3.org/2000/svg"
    xmlns:xlink="http://www.w3.org/1999/xlink"
  >
    <title>编组 15</title>
    <g
      id="页面-1"
      stroke="none"
      stroke-width="1"
      fill="none"
      fill-rule="evenodd"
    >
      <g id="icon未选中" transform="translate(-26.5333, -211.2)">
        <g id="编组-15" transform="translate(26, 210)">
          <rect id="矩形" x="0" y="0" width="16" height="16" />
          <g
            id="编组-14"
            transform="translate(0.5333, 1.2)"
            fill="currentColor"
          >
            <path
              d="M4.76969667,2 L4.76969667,2.66666667 L11.4333307,2.66666667 L11.4333307,2 L11.4333307,1.33333333 L4.76969667,1.33333333 L4.76969667,2 Z M11.4333333,6.33333333 L11.4333333,5.66666667 L3.21006911,5.66666667 L3.21006911,6.33333333 L3.21006911,7 L11.4333333,7 L11.4333333,6.33333333 Z M3.21006911,11.3333333 L3.21006911,12 L10.539394,12 L10.539394,11.3333333 L10.539394,10.6666667 L3.21006911,10.6666667 L3.21006911,11.3333333 Z M0.710069113,8.83333333 L0.0434024463,8.83333333 C0.0434024463,10.5822353 1.46116778,12 3.21006911,12 L3.21006911,11.3333333 L3.21006911,10.6666667 C2.19754711,10.6666667 1.37673578,9.84585533 1.37673578,8.83333333 L0.710069113,8.83333333 Z M3.21006911,6.33333333 L3.21006911,5.66666667 C1.46116711,5.66666667 0.0434024463,7.084432 0.0434024463,8.83333333 L0.710069113,8.83333333 L1.37673578,8.83333333 C1.37673578,7.82081133 2.19754711,7 3.21006911,7 L3.21006911,6.33333333 Z M13.6,4.16666667 L12.9333333,4.16666667 C12.9333333,4.99509333 12.26176,5.66666667 11.4333333,5.66666667 L11.4333333,6.33333333 L11.4333333,7 C12.99814,7 14.2666667,5.73147333 14.2666667,4.16666667 L13.6,4.16666667 Z M11.4333307,2 L11.4333307,2.66666667 C12.2617593,2.66666667 12.9333307,3.33824 12.9333307,4.16666667 L13.6,4.16666667 L14.2666667,4.16666667 C14.2666667,2.60185867 12.998136,1.33333333 11.4333307,1.33333333 L11.4333307,2 Z"
              id="Fill-260"
            />
            <path
              d="M2,0 L6.8,0 C7.9045696,0 8.8,0.8954304 8.8,2 C8.8,3.1045696 7.9045696,4 6.8,4 L2,4 C0.8954304,4 0,3.1045696 0,2 C0,0.8954304 0.8954304,0 2,0 Z"
              id="Fill-261"
            />
            <path
              d="M7.46666667,9.46264972 L12.2666667,9.46264972 C13.3712363,9.46264972 14.2666667,10.3580801 14.2666667,11.4626497 C14.2666667,12.5672193 13.3712363,13.4626497 12.2666667,13.4626497 L7.46666667,13.4626497 C6.36209707,13.4626497 5.46666667,12.5672193 5.46666667,11.4626497 C5.46666667,10.3580801 6.36209707,9.46264972 7.46666667,9.46264972 Z"
              id="Fill-262"
            />
          </g>
        </g>
      </g>
    </g>
  </svg>
