<svg width="1em" height="1em" viewBox="0 0 15.2666667 14.4626497" version="1.1" xmlns="http://www.w3.org/2000/svg" xmlns:xlink="http://www.w3.org/1999/xlink">
    <title>编组 15</title>
    <g id="页面-1" stroke="none" stroke-width="1" fill="none" fill-rule="evenodd">
        <g id="icon未选中备份" transform="translate(-26.0333, -210.7)">
            <g id="编组-8" transform="translate(12, 65)">
                <g id="编组-15" transform="translate(14, 145)">
                    <rect id="矩形" x="0" y="0" width="16" height="16"></rect>
                    <g id="编组-14" transform="translate(0.5333, 1.2)" stroke="currentColor">
                        <path d="M2,0 L6.8,0 C7.9045696,0 8.8,0.8954304 8.8,2 C8.8,3.1045696 7.9045696,4 6.8,4 L2,4 C0.8954304,4 0,3.1045696 0,2 C0,0.8954304 0.8954304,0 2,0 Z" id="Fill-261"></path>
                        <path d="M7.46666667,9.46264972 L12.2666667,9.46264972 C13.3712363,9.46264972 14.2666667,10.3580801 14.2666667,11.4626497 C14.2666667,12.5672193 13.3712363,13.4626497 12.2666667,13.4626497 L7.46666667,13.4626497 C6.36209707,13.4626497 5.46666667,12.5672193 5.46666667,11.4626497 C5.46666667,10.3580801 6.36209707,9.46264972 7.46666667,9.46264972 Z" id="Fill-262"></path>
                        <path d="M8.8,2 C9.84444444,2 10.8888889,2 11.9333333,2 C13.2219977,2 14.2666667,3.04466892 14.2666667,4.33333333 C14.2666667,5.62199775 13.2219977,6.66666667 11.9333333,6.66666667 L2.33333333,6.66666667 C1.04466892,6.66666667 4.14466087e-16,7.71133558 0,9 C1.57815875e-16,10.2886644 1.04466892,11.3333333 2.33333333,11.3333333 C3.37777778,11.3333333 4.42222222,11.3333333 5.46666667,11.3333333" id="路径-2"></path>
                    </g>
                </g>
            </g>
        </g>
    </g>
</svg>
